<svg width="73" height="73" viewBox="0 0 73 73" fill="none" xmlns="http://www.w3.org/2000/svg">
<circle cx="36.5" cy="36.5" r="36.5" fill="#85586F" fill-opacity="0.33"/>
<path d="M47.3039 48.3039H23.9932C23.375 48.3039 22.7821 48.0583 22.3449 47.6212C21.9077 47.184 21.6621 46.5911 21.6621 45.9729V29.6554C21.6621 29.0371 21.9077 28.4442 22.3449 28.0071C22.7821 27.5699 23.375 27.3243 23.9932 27.3243H28.6553L30.9864 23.8277H40.3107L42.6418 27.3243H47.3039C47.9221 27.3243 48.5151 27.5699 48.9522 28.0071C49.3894 28.4442 49.635 29.0371 49.635 29.6554V45.9729C49.635 46.5911 49.3894 47.184 48.9522 47.6212C48.5151 48.0583 47.9221 48.3039 47.3039 48.3039Z" stroke="black" stroke-width="3" stroke-linecap="round" stroke-linejoin="round"/>
<path d="M35.6486 42.4763C38.5452 42.4763 40.8935 40.128 40.8935 37.2314C40.8935 34.3347 38.5452 31.9865 35.6486 31.9865C32.7519 31.9865 30.4037 34.3347 30.4037 37.2314C30.4037 40.128 32.7519 42.4763 35.6486 42.4763Z" stroke="black" stroke-width="3" stroke-linecap="round" stroke-linejoin="round"/>
</svg>
